<svg width="80" height="80" viewBox="0 0 80 80" fill="none" xmlns="http://www.w3.org/2000/svg">
<g clip-path="url(#clip0_866_392)">
<g filter="url(#filter0_i_866_392)">
<circle cx="40" cy="40" r="40" fill="black"/>
</g>
<path fill-rule="evenodd" clip-rule="evenodd" d="M27 11H47.7472V11C48.6207 11 49.1667 11.8379 49.1667 12.7114V25.625C49.1667 27.0057 50.286 28.125 51.6667 28.125H61.9823C62.5174 28.125 63 28.4958 63 29.0309V29.0309V49.9691V49.9691C63 50.5042 62.5174 50.875 61.9823 50.875H51.6667C50.286 50.875 49.1667 51.9943 49.1667 53.375V66.2886C49.1667 67.1621 48.6207 68 47.7472 68V68H27C24.7909 68 23 66.2091 23 64V15C23 12.7909 24.7909 11 27 11ZM50.1667 25.625V12.7956C50.1667 12.3931 50.6158 12.1834 50.8676 12.4974V12.4974L62.1204 26.5283V26.5283C62.323 26.7808 62.1232 27.125 61.7994 27.125H51.6667C50.8382 27.125 50.1667 26.4534 50.1667 25.625ZM51.6667 51.875H61.7994C62.1232 51.875 62.323 52.2192 62.1204 52.4717V52.4717L50.8676 66.5026V66.5026C50.6158 66.8166 50.1667 66.6069 50.1667 66.2044V53.375C50.1667 52.5466 50.8382 51.875 51.6667 51.875ZM27.6136 21.9688C26.7852 21.9688 26.1136 22.6403 26.1136 23.4688C26.1136 24.2972 26.7852 24.9688 27.6136 24.9688H45.3914C46.2198 24.9688 46.8914 24.2972 46.8914 23.4688C46.8914 22.6403 46.2198 21.9688 45.3914 21.9688H27.6136ZM26.1136 31.6904C26.1136 30.862 26.7852 30.1904 27.6136 30.1904H32.229C33.0574 30.1904 33.729 30.862 33.729 31.6904C33.729 32.5189 33.0574 33.1904 32.229 33.1904H27.6136C26.7852 33.1904 26.1136 32.5189 26.1136 31.6904ZM27.6136 53.4375C26.7852 53.4375 26.1136 54.1091 26.1136 54.9375C26.1136 55.7659 26.7852 56.4375 27.6136 56.4375H45.3914C46.2198 56.4375 46.8914 55.7659 46.8914 54.9375C46.8914 54.1091 46.2198 53.4375 45.3914 53.4375H27.6136ZM26.1136 39.5C26.1136 38.6716 26.7852 38 27.6136 38H41.4597C42.2882 38 42.9597 38.6716 42.9597 39.5C42.9597 40.3284 42.2882 41 41.4597 41H27.6136C26.7852 41 26.1136 40.3284 26.1136 39.5ZM27.6136 45.6865C26.7852 45.6865 26.1136 46.3581 26.1136 47.1865C26.1136 48.0149 26.7852 48.6865 27.6136 48.6865H32.229C33.0574 48.6865 33.729 48.0149 33.729 47.1865C33.729 46.3581 33.0574 45.6865 32.229 45.6865H27.6136Z" fill="white"/>
</g>
<defs>
<filter id="filter0_i_866_392" x="0" y="0" width="80" height="80" filterUnits="userSpaceOnUse" color-interpolation-filters="sRGB">
<feFlood flood-opacity="0" result="BackgroundImageFix"/>
<feBlend mode="normal" in="SourceGraphic" in2="BackgroundImageFix" result="shape"/>
<feColorMatrix in="SourceAlpha" type="matrix" values="0 0 0 0 0 0 0 0 0 0 0 0 0 0 0 0 0 0 127 0" result="hardAlpha"/>
<feMorphology radius="1" operator="erode" in="SourceAlpha" result="effect1_innerShadow_866_392"/>
<feOffset/>
<feGaussianBlur stdDeviation="1.5"/>
<feComposite in2="hardAlpha" operator="arithmetic" k2="-1" k3="1"/>
<feColorMatrix type="matrix" values="0 0 0 0 0 0 0 0 0 0 0 0 0 0 0 0 0 0 0.4 0"/>
<feBlend mode="normal" in2="shape" result="effect1_innerShadow_866_392"/>
</filter>
<clipPath id="clip0_866_392">
<rect width="80" height="80" fill="white"/>
</clipPath>
</defs>
</svg>
